<svg xmlns="http://www.w3.org/2000/svg" width="227.77000000000004" height="35" viewBox="0 0 227.77000000000004 35"><rect class="svg__rect" x="0" y="0" width="98.55" height="35" fill="#D55E0B"/><rect class="svg__rect" x="96.55" y="0" width="131.22000000000003" height="35" fill="#F97215"/><path class="svg__text" d="M17.33 22L14.22 22L14.22 13.47L17.14 13.47Q18.59 13.47 19.34 14.05Q20.10 14.63 20.10 15.78L20.10 15.78Q20.10 16.36 19.78 16.83Q19.47 17.30 18.86 17.56L18.86 17.56Q19.55 17.75 19.93 18.26Q20.31 18.78 20.31 19.51L20.31 19.51Q20.31 20.71 19.53 21.36Q18.76 22 17.33 22L17.33 22ZM15.70 18.15L15.70 20.82L17.35 20.82Q18.04 20.82 18.44 20.47Q18.83 20.13 18.83 19.51L18.83 19.51Q18.83 18.18 17.47 18.15L17.47 18.15L15.70 18.15ZM15.70 14.66L15.70 17.06L17.15 17.06Q17.84 17.06 18.23 16.75Q18.62 16.43 18.62 15.86L18.62 15.86Q18.62 15.23 18.26 14.95Q17.90 14.66 17.14 14.66L17.14 14.66L15.70 14.66ZM25.56 22L24.01 22L27.24 13.47L28.57 13.47L31.80 22L30.25 22L29.55 20.01L26.25 20.01L25.56 22ZM27.90 15.28L26.66 18.82L29.14 18.82L27.90 15.28ZM35.48 18.19L35.48 18.19L35.48 17.39Q35.48 16.19 35.91 15.27Q36.34 14.35 37.14 13.85Q37.94 13.35 38.98 13.35L38.98 13.35Q40.40 13.35 41.26 14.12Q42.12 14.89 42.26 16.29L42.26 16.29L40.78 16.29Q40.68 15.37 40.25 14.96Q39.82 14.55 38.98 14.55L38.98 14.55Q38.02 14.55 37.50 15.26Q36.98 15.96 36.97 17.33L36.97 17.33L36.97 18.09Q36.97 19.47 37.46 20.20Q37.96 20.92 38.91 20.92L38.91 20.92Q39.79 20.92 40.23 20.53Q40.67 20.14 40.78 19.22L40.78 19.22L42.26 19.22Q42.13 20.59 41.25 21.35Q40.37 22.12 38.91 22.12L38.91 22.12Q37.89 22.12 37.12 21.63Q36.34 21.15 35.92 20.26Q35.50 19.37 35.48 18.19ZM48.06 22L46.57 22L46.57 13.47L48.06 13.47L48.06 17.47L48.88 16.46L51.37 13.47L53.16 13.47L49.99 17.25L53.35 22L51.59 22L49.02 18.31L48.06 19.34L48.06 22ZM62.70 22L57.13 22L57.13 13.47L62.66 13.47L62.66 14.66L58.61 14.66L58.61 17.02L62.11 17.02L62.11 18.19L58.61 18.19L58.61 20.82L62.70 20.82L62.70 22ZM68.38 22L66.90 22L66.90 13.47L68.38 13.47L72.20 19.54L72.20 13.47L73.67 13.47L73.67 22L72.18 22L68.38 15.95L68.38 22ZM80.86 22L78.41 22L78.41 13.47L80.93 13.47Q82.06 13.47 82.93 13.97Q83.81 14.48 84.29 15.40Q84.77 16.33 84.77 17.52L84.77 17.52L84.77 17.95Q84.77 19.16 84.29 20.08Q83.80 21.00 82.91 21.50Q82.02 22 80.86 22L80.86 22ZM79.89 14.66L79.89 20.82L80.86 20.82Q82.02 20.82 82.65 20.09Q83.27 19.36 83.28 17.99L83.28 17.99L83.28 17.52Q83.28 16.13 82.68 15.40Q82.07 14.66 80.93 14.66L80.93 14.66L79.89 14.66Z" fill="#FFFFFF"/><path class="svg__text" d="M114.71 22L110.74 22L110.74 13.60L114.71 13.60Q116.09 13.60 117.16 14.12Q118.23 14.63 118.82 15.58Q119.40 16.53 119.40 17.80L119.40 17.80Q119.40 19.07 118.82 20.02Q118.23 20.97 117.16 21.48Q116.09 22 114.71 22L114.71 22ZM113.12 15.50L113.12 20.10L114.62 20.10Q115.69 20.10 116.35 19.49Q117.00 18.88 117.00 17.80L117.00 17.80Q117.00 16.72 116.35 16.11Q115.69 15.50 114.62 15.50L114.62 15.50L113.12 15.50ZM130.88 22L124.13 22L124.13 13.60L130.72 13.60L130.72 15.44L126.49 15.44L126.49 16.85L130.22 16.85L130.22 18.63L126.49 18.63L126.49 20.17L130.88 20.17L130.88 22ZM138.27 22L134.67 13.60L137.25 13.60L139.53 19.07L141.85 13.60L144.20 13.60L140.60 22L138.27 22ZM155.10 22L148.36 22L148.36 13.60L154.95 13.60L154.95 15.44L150.71 15.44L150.71 16.85L154.44 16.85L154.44 18.63L150.71 18.63L150.71 20.17L155.10 20.17L155.10 22ZM166.29 22L159.90 22L159.90 13.60L162.28 13.60L162.28 20.11L166.29 20.11L166.29 22ZM170.28 17.80L170.28 17.80Q170.28 16.55 170.88 15.55Q171.49 14.56 172.55 14.00Q173.61 13.43 174.94 13.43L174.94 13.43Q176.28 13.43 177.34 14.00Q178.40 14.56 179.01 15.55Q179.61 16.55 179.61 17.80L179.61 17.80Q179.61 19.05 179.01 20.04Q178.40 21.04 177.34 21.60Q176.28 22.17 174.94 22.17L174.94 22.17Q173.61 22.17 172.55 21.60Q171.49 21.04 170.88 20.04Q170.28 19.05 170.28 17.80ZM172.68 17.80L172.68 17.80Q172.68 18.51 172.98 19.05Q173.28 19.60 173.80 19.90Q174.31 20.20 174.94 20.20L174.94 20.20Q175.58 20.20 176.10 19.90Q176.61 19.60 176.91 19.05Q177.21 18.51 177.21 17.80L177.21 17.80Q177.21 17.09 176.91 16.54Q176.61 16 176.10 15.70Q175.58 15.40 174.94 15.40L174.94 15.40Q174.31 15.40 173.79 15.70Q173.28 16 172.98 16.54Q172.68 17.09 172.68 17.80ZM186.72 22L184.34 22L184.34 13.60L188.19 13.60Q189.32 13.60 190.16 13.98Q191.01 14.35 191.46 15.06Q191.92 15.76 191.92 16.71L191.92 16.71Q191.92 17.66 191.46 18.35Q191.01 19.05 190.16 19.42Q189.32 19.80 188.19 19.80L188.19 19.80L186.72 19.80L186.72 22ZM186.72 15.47L186.72 17.93L188.04 17.93Q188.77 17.93 189.15 17.61Q189.52 17.29 189.52 16.71L189.52 16.71Q189.52 16.12 189.15 15.80Q188.77 15.47 188.04 15.47L188.04 15.47L186.72 15.47ZM203.42 22L196.67 22L196.67 13.60L203.26 13.60L203.26 15.44L199.03 15.44L199.03 16.85L202.76 16.85L202.76 18.63L199.03 18.63L199.03 20.17L203.42 20.17L203.42 22ZM210.60 22L208.22 22L208.22 13.60L212.06 13.60Q213.21 13.60 214.04 13.98Q214.88 14.35 215.34 15.06Q215.80 15.76 215.80 16.71L215.80 16.71Q215.80 17.62 215.37 18.30Q214.94 18.98 214.15 19.36L214.15 19.36L215.96 22L213.42 22L211.89 19.77L210.60 19.77L210.60 22ZM210.60 15.47L210.60 17.93L211.92 17.93Q212.65 17.93 213.02 17.61Q213.39 17.29 213.39 16.71L213.39 16.71Q213.39 16.12 213.02 15.79Q212.65 15.47 211.92 15.47L211.92 15.47L210.60 15.47Z" fill="#FFFFFF" x="109.55"/></svg>