<svg xmlns="http://www.w3.org/2000/svg" width="145.73" height="35" viewBox="0 0 145.73 35"><rect class="svg__rect" x="0" y="0" width="50.69" height="35" fill="#FFFFFF"/><rect class="svg__rect" x="48.69" y="0" width="97.03999999999999" height="35" fill="#F97215"/><path class="svg__text" d="M15.78 22L14.31 22L14.31 13.47L15.78 13.47L15.78 22ZM23.05 22L20.59 22L20.59 13.47L23.11 13.47Q24.24 13.47 25.12 13.97Q25.99 14.48 26.48 15.40Q26.96 16.33 26.96 17.52L26.96 17.52L26.96 17.95Q26.96 19.16 26.47 20.08Q25.99 21.00 25.10 21.50Q24.20 22 23.05 22L23.05 22ZM22.07 14.66L22.07 20.82L23.04 20.82Q24.21 20.82 24.83 20.09Q25.46 19.36 25.47 17.99L25.47 17.99L25.47 17.52Q25.47 16.13 24.86 15.40Q24.26 14.66 23.11 14.66L23.11 14.66L22.07 14.66ZM37.00 22L31.42 22L31.42 13.47L36.96 13.47L36.96 14.66L32.90 14.66L32.90 17.02L36.41 17.02L36.41 18.19L32.90 18.19L32.90 20.82L37.00 20.82L37.00 22Z" fill="#D35B09"/><path class="svg__text" d="M65.46 22L61.87 13.60L64.44 13.60L66.72 19.07L69.05 13.60L71.40 13.60L67.80 22L65.46 22ZM74.97 21.24L74.97 21.24L75.75 19.49Q76.31 19.86 77.05 20.09Q77.80 20.32 78.52 20.32L78.52 20.32Q79.88 20.32 79.89 19.64L79.89 19.64Q79.89 19.28 79.50 19.11Q79.11 18.93 78.24 18.74L78.24 18.74Q77.29 18.53 76.66 18.30Q76.02 18.06 75.57 17.55Q75.11 17.03 75.11 16.16L75.11 16.16Q75.11 15.39 75.53 14.77Q75.95 14.15 76.79 13.79Q77.62 13.43 78.83 13.43L78.83 13.43Q79.65 13.43 80.46 13.62Q81.26 13.80 81.88 14.17L81.88 14.17L81.15 15.93Q79.95 15.28 78.82 15.28L78.82 15.28Q78.11 15.28 77.78 15.49Q77.46 15.70 77.46 16.04L77.46 16.04Q77.46 16.37 77.85 16.54Q78.23 16.71 79.08 16.89L79.08 16.89Q80.04 17.10 80.67 17.33Q81.30 17.56 81.76 18.07Q82.23 18.58 82.23 19.46L82.23 19.46Q82.23 20.21 81.81 20.83Q81.39 21.44 80.55 21.80Q79.71 22.17 78.50 22.17L78.50 22.17Q77.49 22.17 76.52 21.92Q75.56 21.67 74.97 21.24ZM86.37 17.80L86.37 17.80Q86.37 16.54 86.97 15.54Q87.57 14.55 88.62 13.99Q89.67 13.43 90.99 13.43L90.99 13.43Q92.15 13.43 93.07 13.84Q93.99 14.25 94.61 15.02L94.61 15.02L93.09 16.39Q92.28 15.40 91.11 15.40L91.11 15.40Q90.43 15.40 89.90 15.70Q89.36 16 89.07 16.54Q88.77 17.09 88.77 17.80L88.77 17.80Q88.77 18.51 89.07 19.05Q89.36 19.60 89.90 19.90Q90.43 20.20 91.11 20.20L91.11 20.20Q92.28 20.20 93.09 19.22L93.09 19.22L94.61 20.58Q94.00 21.35 93.07 21.76Q92.15 22.17 90.99 22.17L90.99 22.17Q89.67 22.17 88.62 21.61Q87.57 21.05 86.97 20.05Q86.37 19.06 86.37 17.80ZM98.71 17.80L98.71 17.80Q98.71 16.55 99.32 15.55Q99.92 14.56 100.98 14.00Q102.05 13.43 103.38 13.43L103.38 13.43Q104.71 13.43 105.77 14.00Q106.83 14.56 107.44 15.55Q108.05 16.55 108.05 17.80L108.05 17.80Q108.05 19.05 107.44 20.04Q106.83 21.04 105.77 21.60Q104.71 22.17 103.38 22.17L103.38 22.17Q102.05 22.17 100.98 21.60Q99.92 21.04 99.32 20.04Q98.71 19.05 98.71 17.80ZM101.11 17.80L101.11 17.80Q101.11 18.51 101.41 19.05Q101.71 19.60 102.23 19.90Q102.75 20.20 103.38 20.20L103.38 20.20Q104.02 20.20 104.53 19.90Q105.05 19.60 105.35 19.05Q105.65 18.51 105.65 17.80L105.65 17.80Q105.65 17.09 105.35 16.54Q105.05 16 104.53 15.70Q104.02 15.40 103.38 15.40L103.38 15.40Q102.74 15.40 102.23 15.70Q101.71 16 101.41 16.54Q101.11 17.09 101.11 17.80ZM116.75 22L112.78 22L112.78 13.60L116.75 13.60Q118.13 13.60 119.20 14.12Q120.26 14.63 120.85 15.58Q121.44 16.53 121.44 17.80L121.44 17.80Q121.44 19.07 120.85 20.02Q120.26 20.97 119.20 21.48Q118.13 22 116.75 22L116.75 22ZM115.16 15.50L115.16 20.10L116.66 20.10Q117.73 20.10 118.39 19.49Q119.04 18.88 119.04 17.80L119.04 17.80Q119.04 16.72 118.39 16.11Q117.73 15.50 116.66 15.50L116.66 15.50L115.16 15.50ZM132.91 22L126.17 22L126.17 13.60L132.76 13.60L132.76 15.44L128.53 15.44L128.53 16.85L132.26 16.85L132.26 18.63L128.53 18.63L128.53 20.17L132.91 20.17L132.91 22Z" fill="#FFFFFF" x="61.69"/></svg>