<svg xmlns="http://www.w3.org/2000/svg" width="194.2" height="35" viewBox="0 0 194.2 35"><rect class="svg__rect" x="0" y="0" width="76.66" height="35" fill="#FFFFFF"/><rect class="svg__rect" x="74.66" y="0" width="119.53999999999999" height="35" fill="#CD2C46"/><path class="svg__text" d="M15.70 22L14.22 22L14.22 13.47L15.70 13.47L19.51 19.54L19.51 13.47L20.98 13.47L20.98 22L19.50 22L15.70 15.95L15.70 22ZM25.46 18.00L25.46 18.00L25.46 17.52Q25.46 16.28 25.90 15.32Q26.34 14.37 27.15 13.86Q27.95 13.35 28.99 13.35Q30.04 13.35 30.84 13.85Q31.65 14.35 32.09 15.29Q32.53 16.23 32.53 17.48L32.53 17.48L32.53 17.96Q32.53 19.21 32.10 20.16Q31.67 21.10 30.86 21.61Q30.06 22.12 29.01 22.12L29.01 22.12Q27.97 22.12 27.16 21.61Q26.35 21.10 25.90 20.17Q25.46 19.23 25.46 18.00ZM26.94 17.46L26.94 17.96Q26.94 19.36 27.49 20.13Q28.03 20.90 29.01 20.90L29.01 20.90Q29.99 20.90 30.52 20.15Q31.05 19.40 31.05 17.96L31.05 17.96L31.05 17.51Q31.05 16.09 30.52 15.34Q29.98 14.58 28.99 14.58L28.99 14.58Q28.03 14.58 27.49 15.33Q26.95 16.09 26.94 17.46L26.94 17.46ZM39.30 22L36.24 13.47L37.86 13.47L40.00 20.14L42.17 13.47L43.80 13.47L40.73 22L39.30 22ZM53.33 22L47.75 22L47.75 13.47L53.29 13.47L53.29 14.66L49.23 14.66L49.23 17.02L52.74 17.02L52.74 18.19L49.23 18.19L49.23 20.82L53.33 20.82L53.33 22ZM62.88 22L57.52 22L57.52 13.47L59.01 13.47L59.01 20.82L62.88 20.82L62.88 22Z" fill="#C13B3A"/><path class="svg__text" d="M91.23 22L88.85 22L88.85 13.60L92.69 13.60Q93.83 13.60 94.67 13.98Q95.51 14.35 95.97 15.06Q96.42 15.76 96.42 16.71L96.42 16.71Q96.42 17.66 95.97 18.35Q95.51 19.05 94.67 19.42Q93.83 19.80 92.69 19.80L92.69 19.80L91.23 19.80L91.23 22ZM91.23 15.47L91.23 17.93L92.55 17.93Q93.28 17.93 93.65 17.61Q94.02 17.29 94.02 16.71L94.02 16.71Q94.02 16.12 93.65 15.80Q93.28 15.47 92.55 15.47L92.55 15.47L91.23 15.47ZM103.55 22L101.18 22L101.18 13.60L103.55 13.60L103.55 22ZM110.58 22L107.87 22L110.93 17.75L108.00 13.60L110.67 13.60L112.36 16.02L114.01 13.60L116.58 13.60L113.65 17.66L116.77 22L114.04 22L112.30 19.40L110.58 22ZM127.80 22L121.06 22L121.06 13.60L127.65 13.60L127.65 15.44L123.41 15.44L123.41 16.85L127.14 16.85L127.14 18.63L123.41 18.63L123.41 20.17L127.80 20.17L127.80 22ZM138.99 22L132.61 22L132.61 13.60L134.98 13.60L134.98 20.11L138.99 20.11L138.99 22ZM151.80 22L149.38 22L153.08 13.60L155.43 13.60L159.14 22L156.68 22L156.01 20.37L152.46 20.37L151.80 22ZM154.24 15.93L153.15 18.61L155.32 18.61L154.24 15.93ZM165.68 22L163.30 22L163.30 13.60L167.14 13.60Q168.28 13.60 169.12 13.98Q169.96 14.35 170.42 15.06Q170.87 15.76 170.87 16.71L170.87 16.71Q170.87 17.62 170.45 18.30Q170.02 18.98 169.23 19.36L169.23 19.36L171.04 22L168.49 22L166.97 19.77L165.68 19.77L165.68 22ZM165.68 15.47L165.68 17.93L166.99 17.93Q167.73 17.93 168.10 17.61Q168.47 17.29 168.47 16.71L168.47 16.71Q168.47 16.12 168.10 15.79Q167.73 15.47 166.99 15.47L166.99 15.47L165.68 15.47ZM177.45 15.48L174.87 15.48L174.87 13.60L182.39 13.60L182.39 15.48L179.83 15.48L179.83 22L177.45 22L177.45 15.48Z" fill="#FFFFFF" x="87.66"/></svg>