<svg xmlns="http://www.w3.org/2000/svg" width="200.12" height="35" viewBox="0 0 200.12 35"><rect class="svg__rect" x="0" y="0" width="106.5" height="35" fill="#FFFFFF"/><rect class="svg__rect" x="104.5" y="0" width="95.61999999999999" height="35" fill="#CD2C46"/><path class="svg__text" d="M15.70 22L14.22 22L14.22 13.47L17.22 13.47Q18.69 13.47 19.50 14.13Q20.30 14.79 20.30 16.05L20.30 16.05Q20.30 16.90 19.89 17.48Q19.47 18.06 18.73 18.37L18.73 18.37L20.65 21.92L20.65 22L19.06 22L17.35 18.71L15.70 18.71L15.70 22ZM15.70 14.66L15.70 17.52L17.22 17.52Q17.97 17.52 18.39 17.15Q18.82 16.77 18.82 16.11L18.82 16.11Q18.82 15.43 18.43 15.05Q18.04 14.68 17.26 14.66L17.26 14.66L15.70 14.66ZM24.42 18.00L24.42 18.00L24.42 17.52Q24.42 16.28 24.87 15.32Q25.31 14.37 26.11 13.86Q26.92 13.35 27.96 13.35Q29.01 13.35 29.81 13.85Q30.62 14.35 31.06 15.29Q31.50 16.23 31.50 17.48L31.50 17.48L31.50 17.96Q31.50 19.21 31.07 20.16Q30.64 21.10 29.83 21.61Q29.02 22.12 27.98 22.12L27.98 22.12Q26.94 22.12 26.13 21.61Q25.31 21.10 24.87 20.17Q24.43 19.23 24.42 18.00ZM25.91 17.46L25.91 17.96Q25.91 19.36 26.45 20.13Q27.00 20.90 27.98 20.90L27.98 20.90Q28.96 20.90 29.49 20.15Q30.02 19.40 30.02 17.96L30.02 17.96L30.02 17.51Q30.02 16.09 29.48 15.34Q28.95 14.58 27.96 14.58L27.96 14.58Q27.00 14.58 26.46 15.33Q25.92 16.09 25.91 17.46L25.91 17.46ZM41.32 22L35.97 22L35.97 13.47L37.45 13.47L37.45 20.82L41.32 20.82L41.32 22ZM51.03 22L45.45 22L45.45 13.47L50.98 13.47L50.98 14.66L46.93 14.66L46.93 17.02L50.43 17.02L50.43 18.19L46.93 18.19L46.93 20.82L51.03 20.82L51.03 22ZM56.70 22L55.22 22L55.22 13.47L58.48 13.47Q59.91 13.47 60.76 14.21Q61.60 14.96 61.60 16.18L61.60 16.18Q61.60 17.44 60.77 18.13Q59.95 18.83 58.47 18.83L58.47 18.83L56.70 18.83L56.70 22ZM56.70 14.66L56.70 17.64L58.48 17.64Q59.28 17.64 59.69 17.27Q60.11 16.90 60.11 16.19L60.11 16.19Q60.11 15.50 59.69 15.09Q59.26 14.68 58.53 14.66L58.53 14.66L56.70 14.66ZM71.23 22L65.88 22L65.88 13.47L67.36 13.47L67.36 20.82L71.23 20.82L71.23 22ZM76.14 22L74.60 22L77.82 13.47L79.15 13.47L82.38 22L80.83 22L80.14 20.01L76.83 20.01L76.14 22ZM78.48 15.28L77.25 18.82L79.72 18.82L78.48 15.28ZM88.37 18.86L85.51 13.47L87.15 13.47L89.12 17.51L91.08 13.47L92.72 13.47L89.86 18.86L89.86 22L88.37 22L88.37 18.86Z" fill="#C13B3A"/><path class="svg__text" d="M118.26 17.80L118.26 17.80Q118.26 16.54 118.86 15.54Q119.46 14.55 120.52 13.99Q121.59 13.43 122.94 13.43L122.94 13.43Q124.11 13.43 125.05 13.83Q125.99 14.22 126.61 14.97L126.61 14.97L125.10 16.33Q124.25 15.40 123.08 15.40L123.08 15.40Q123.06 15.40 123.06 15.40L123.06 15.40Q121.98 15.40 121.32 16.06Q120.66 16.71 120.66 17.80L120.66 17.80Q120.66 18.50 120.96 19.04Q121.26 19.59 121.80 19.89Q122.34 20.20 123.04 20.20L123.04 20.20Q123.72 20.20 124.32 19.93L124.32 19.93L124.32 17.62L126.42 17.62L126.42 21.10Q125.70 21.61 124.76 21.89Q123.83 22.17 122.89 22.17L122.89 22.17Q121.57 22.17 120.51 21.61Q119.46 21.05 118.86 20.05Q118.26 19.06 118.26 17.80ZM132.83 22L130.40 22L134.11 13.60L136.45 13.60L140.17 22L137.70 22L137.04 20.37L133.49 20.37L132.83 22ZM135.26 15.93L134.18 18.61L136.34 18.61L135.26 15.93ZM146.52 22L144.32 22L144.32 13.60L146.28 13.60L149.23 18.45L152.12 13.60L154.07 13.60L154.09 22L151.91 22L151.89 17.55L149.72 21.17L148.67 21.17L146.52 17.67L146.52 22ZM161.63 22L159.25 22L159.25 13.60L161.63 13.60L161.63 22ZM169.14 22L166.81 22L166.81 13.60L168.76 13.60L172.47 18.07L172.47 13.60L174.80 13.60L174.80 22L172.85 22L169.14 17.52L169.14 22ZM179.53 17.80L179.53 17.80Q179.53 16.54 180.13 15.54Q180.73 14.55 181.80 13.99Q182.87 13.43 184.21 13.43L184.21 13.43Q185.39 13.43 186.32 13.83Q187.26 14.22 187.88 14.97L187.88 14.97L186.37 16.33Q185.53 15.40 184.35 15.40L184.35 15.40Q184.34 15.40 184.33 15.40L184.33 15.40Q183.25 15.40 182.59 16.06Q181.93 16.71 181.93 17.80L181.93 17.80Q181.93 18.50 182.23 19.04Q182.53 19.59 183.07 19.89Q183.61 20.20 184.31 20.20L184.31 20.20Q184.99 20.20 185.59 19.93L185.59 19.93L185.59 17.62L187.69 17.62L187.69 21.10Q186.97 21.61 186.03 21.89Q185.10 22.17 184.16 22.17L184.16 22.17Q182.84 22.17 181.78 21.61Q180.73 21.05 180.13 20.05Q179.53 19.06 179.53 17.80Z" fill="#FFFFFF" x="117.5"/></svg>